# File created by Blade
# Date/Time:  Tue Sep 30 19:33:40 2014
#---------------------------------------------------------
:version 1.10
:name HOM
:units
  mass 1.0
  length 1.000000
  angle deg
:documentation
     Acclaim Skeleton File
:root
   axis xyz
   order TX TY TZ RX RY RZ
   position 0.000000 0.000000 0.000000
   orientation 0 0 0
:bonedata
   begin
      id 1
      name Spine_dum
      direction 0.000000 1.000000 0.000000
      length 3.241213
      axis 0.0 0.0 0.0 xyz
   end
   begin
      id 2
      name LeftUpLeg_dum
      direction 1.000000 0.000000 0.000000
      length 3.434019
      axis 0.0 0.0 0.0 xyz
   end
   begin
      id 3
      name RightUpLeg_dum
      direction -1.000000 0.000000 0.000000
      length 3.434019
      axis 0.0 0.0 0.0 xyz
   end
   begin
      id 4
      name Spine
      direction 0.000000 1.000000 0.000000
      length 0.000000
      axis 0.0 0.0 0.0 xyz
      dof rx ry rz
   end
   begin
      id 5
      name Spine_dum1
      direction 0.000000 1.000000 0.000000
      length 18.382958
      axis 0.0 0.0 0.0 xyz
   end
   begin
      id 6
      name Spine_dum2
      direction 0.000000 1.000000 0.000000
      length 12.828261
      axis 0.0 0.0 0.0 xyz
   end
   begin
      id 7
      name Spine_dum3
      direction 0.000000 1.000000 0.000000
      length 12.828261
      axis 0.0 0.0 0.0 xyz
   end
   begin
      id 8
      name Head
      direction 0.000000 1.000000 0.000000
      length 4.527550
      axis 0.0 0.0 0.0 xyz
      dof rx ry rz
   end
   begin
      id 9
      name LeftShoulder
      direction 1.000000 0.000000 0.000000
      length 7.748055
      axis 0.0 0.0 -90.0 xyz
      dof rx ry rz
   end
   begin
      id 10
      name LeftArm
      direction 1.000000 0.000000 0.000000
      length 10.635614
      axis 0.0 0.0 -90.0 xyz
      dof rx ry rz
   end
   begin
      id 11
      name LeftForeArm
      direction 1.000000 0.000000 0.000000
      length 8.346755
      axis 0.0 0.0 -90.0 xyz
      dof ry rz rx
   end
   begin
      id 12
      name LeftHand
      direction 0.000000 0.000000 0.000000
      length 0.000000
      axis 0.0 0.0 -90.0 xyz
      dof rx ry rz
   end
   begin
      id 13
      name LeftHand_dum1
      direction 0.000000 0.000000 0.000000
      length 0.000000
      axis 0.0 0.0 -90.0 xyz
   end
   begin
      id 14
      name LeftHand_dum2
      direction 1.000000 0.000000 0.000000
      length 3.937000
      axis 0.0 0.0 -90.0 xyz
   end
   begin
      id 15
      name LeftHandThumb1
      direction 0.000000 0.000000 1.000000
      length 3.937000
      axis 0.0 0.0 -90.0 xyz
      dof rx rz ry
   end
   begin
      id 16
      name RightShoulder
      direction -1.000000 0.000000 0.000000
      length 7.748055
      axis 0.0 0.0 90.0 xyz
      dof rx ry rz
   end
   begin
      id 17
      name RightArm
      direction -1.000000 0.000000 0.000000
      length 10.635614
      axis 0.0 0.0 90.0 xyz
      dof rx ry rz
   end
   begin
      id 18
      name RightForeArm
      direction -1.000000 0.000000 0.000000
      length 8.346755
      axis 0.0 0.0 90.0 xyz
      dof ry rz rx
   end
   begin
      id 19
      name RightHand
      direction 0.000000 0.000000 0.000000
      length 0.000000
      axis 0.0 0.0 90.0 xyz
      dof rx ry rz
   end
   begin
      id 20
      name RightHand_dum1
      direction 0.000000 0.000000 0.000000
      length 0.000000
      axis 0.0 0.0 90.0 xyz
   end
   begin
      id 21
      name RightHand_dum2
      direction -1.000000 0.000000 0.000000
      length 3.937000
      axis 0.0 0.0 90.0 xyz
   end
   begin
      id 22
      name RightHandThumb1
      direction 0.000000 0.000000 1.000000
      length 3.937000
      axis 0.0 0.0 90.0 xyz
      dof rx rz ry
   end
   begin
      id 23
      name LeftUpLeg
      direction 0.000000 -1.000000 0.000000
      length 15.713025
      axis 0.0 0.0 0.0 xyz
      dof rx ry rz
   end
   begin
      id 24
      name LeftLeg
      direction 0.000000 -1.000000 0.000000
      length 14.435119
      axis 0.0 0.0 0.0 xyz
      dof rx ry rz
   end
   begin
      id 25
      name LeftFoot
      direction 0.000000 -0.258819 0.965926
      length 4.938895
      axis 15.0 0.0 0.0 xyz
      dof rx ry rz
   end
   begin
      id 26
      name LeftToeBase
      direction 0.000000 0.000000 1.000000
      length 2.952750
      axis 0.0 0.0 0.0 xyz
      dof rx ry rz
   end
   begin
      id 27
      name RightUpLeg
      direction 0.000000 -1.000000 0.000000
      length 15.713025
      axis 0.0 0.0 0.0 xyz
      dof rx ry rz
   end
   begin
      id 28
      name RightLeg
      direction 0.000000 -1.000000 0.000000
      length 14.435119
      axis 0.0 0.0 0.0 xyz
      dof rx ry rz
   end
   begin
      id 29
      name RightFoot
      direction 0.000000 -0.258819 0.965926
      length 4.938895
      axis 15.0 0.0 0.0 xyz
      dof rx ry rz
   end
   begin
      id 30
      name RightToeBase
      direction 0.000000 0.000000 1.000000
      length 2.952750
      axis 0.0 0.0 0.0 xyz
      dof rx ry rz
   end
:hierarchy
   begin
      root Spine_dum LeftUpLeg_dum RightUpLeg_dum
      Spine_dum Spine
      LeftUpLeg_dum LeftUpLeg
      RightUpLeg_dum RightUpLeg
      Spine Spine_dum1 Spine_dum2 Spine_dum3
      Spine_dum1 Head
      Spine_dum2 LeftShoulder
      Spine_dum3 RightShoulder
      LeftShoulder LeftArm
      LeftArm LeftForeArm
      LeftForeArm LeftHand
      LeftHand LeftHand_dum1 LeftHand_dum2
      LeftHand_dum1 LeftHandThumb1
      RightShoulder RightArm
      RightArm RightForeArm
      RightForeArm RightHand
      RightHand RightHand_dum1 RightHand_dum2
      RightHand_dum1 RightHandThumb1
      LeftUpLeg LeftLeg
      LeftLeg LeftFoot
      LeftFoot LeftToeBase
      RightUpLeg RightLeg
      RightLeg RightFoot
      RightFoot RightToeBase
   end

# File created by Blade
# Date/Time:  Mon Sep 22 21:09:19 2014
# Frame Rate: 120.000 fps
#------------------------------------------------------
:FULLY-SPECIFIED
:DEGREES
1
root -3.683100 32.400311 -2.551097 33.876465 5.075738 0.394801
Spine -39.433710 -5.321621 4.230004
Head 5.667934 -1.272920 -5.919163
LeftShoulder -17.828333 39.669792 25.088996
LeftArm 41.403799 -44.569813 -47.243985
LeftForeArm 20.764806 -0.000000 -1.466260
LeftHand -25.291449 -0.000000 -3.683090
LeftHandThumb1 -26.253704 0.000000 33.147579
RightShoulder -18.041268 -40.472499 -26.254501
RightArm 45.486453 30.201650 49.487121
RightForeArm 16.697358 -0.000000 -7.347558
RightHand 8.181741 -0.000000 8.146169
RightHandThumb1 -24.326973 -0.000000 -32.862282
LeftUpLeg -27.587602 1.901612 1.192313
LeftLeg -0.362743 -0.000000 0.000000
LeftFoot -6.560393 -2.360758 -2.563048
LeftToeBase 4.553114 -0.000000 -0.000000
RightUpLeg -26.917042 -4.966466 3.823974
RightLeg -2.907763 -0.000000 0.000000
RightFoot -9.916885 -6.788091 15.037438
RightToeBase 16.265073 -0.000000 -0.000000
2
root -3.683310 32.400777 -2.552339 33.879302 5.072258 0.394122
Spine -39.423735 -5.328146 4.232870
Head 5.639722 -1.286167 -5.904232
LeftShoulder -17.827845 39.681460 25.084234
LeftArm 41.399065 -44.578103 -47.235391
LeftForeArm 20.779027 -0.000000 -1.451245
LeftHand -25.287254 -0.000000 -3.691993
LeftHandThumb1 -26.253704 0.000000 33.147579
RightShoulder -18.040741 -40.486608 -26.259339
RightArm 45.477519 30.206571 49.479069
RightForeArm 16.652307 -0.000000 -7.333834
RightHand 8.184375 -0.000000 8.091537
RightHandThumb1 -24.326973 -0.000000 -32.862282
LeftUpLeg -27.590288 1.895429 1.197252
LeftLeg -0.363422 -0.000000 0.000000
LeftFoot -6.549956 -2.349725 -2.553213
LeftToeBase 4.567745 -0.000000 -0.000000
RightUpLeg -26.922290 -4.963042 3.825249
RightLeg -2.909208 -0.000000 0.000000
RightFoot -9.901857 -6.792425 14.985457
RightToeBase 16.256011 -0.000000 -0.000000
3
root -3.682869 32.401256 -2.552773 33.882176 5.072445 0.394602
Spine -39.416373 -5.336130 4.236979
Head 5.615725 -1.312185 -5.887662
LeftShoulder -17.829453 39.690860 25.081046
LeftArm 41.379540 -44.562846 -47.210131
LeftForeArm 20.770142 0.000000 -1.430197
LeftHand -25.282258 -0.000000 -3.692098
LeftHandThumb1 -26.253704 0.000000 33.147579
RightShoulder -18.047435 -40.514165 -26.268957
RightArm 45.511171 30.236141 49.528972
RightForeArm 16.614944 0.000000 -7.336823
RightHand 8.234200 -0.000000 8.051999
RightHandThumb1 -24.326973 -0.000000 -32.862282
LeftUpLeg -27.594655 1.900074 1.193821
LeftLeg -0.363444 -0.000000 0.000000
LeftFoot -6.537852 -2.360269 -2.556449
LeftToeBase 4.558129 -0.000000 -0.000000
RightUpLeg -26.926311 -4.965666 3.824082
RightLeg -2.908726 -0.000000 0.000000
RightFoot -9.907024 -6.788489 15.035088
RightToeBase 16.282063 -0.000000 -0.000000
4
root -3.682835 32.401456 -2.554226 33.885623 5.065414 0.395008
Spine -39.405922 -5.344585 4.243881
Head 5.584165 -1.318962 -5.889630
LeftShoulder -17.837619 39.687655 25.066895
LeftArm 41.351054 -44.558845 -47.179902
LeftForeArm 20.758566 0.000000 -1.412440
LeftHand -25.253178 -0.000000 -3.688265
LeftHandThumb1 -26.253704 0.000000 33.147579
RightShoulder -18.054405 -40.533799 -26.279686
RightArm 45.541928 30.236979 49.552250
RightForeArm 16.615455 -0.000000 -7.348190
RightHand 8.298263 -0.000000 8.024666
RightHandThumb1 -24.326973 -0.000000 -32.862282
LeftUpLeg -27.597808 1.899249 1.192716
LeftLeg -0.367154 -0.000000 0.000000
LeftFoot -6.535155 -2.353947 -2.568648
LeftToeBase 4.558835 -0.000000 -0.000000
RightUpLeg -26.925888 -4.964140 3.823558
RightLeg -2.924285 -0.000000 0.000000
RightFoot -9.887225 -6.779388 14.983544
RightToeBase 16.268620 -0.000000 -0.000000
5
root -3.682545 32.401792 -2.554894 33.890352 5.059579 0.392749
Spine -39.402785 -5.349171 4.251865
Head 5.565790 -1.353821 -5.872231
LeftShoulder -17.839433 39.679318 25.060413
LeftArm 41.324416 -44.543681 -47.143999
LeftForeArm 20.731383 -0.000000 -1.414042
LeftHand -25.243799 0.000000 -3.678730
LeftHandThumb1 -26.253704 0.000000 33.147579
RightShoulder -18.034303 -40.523706 -26.315380
RightArm 45.517342 30.213912 49.553392
RightForeArm 16.619572 -0.000000 -7.350193
RightHand 8.337804 -0.000000 8.039754
RightHandThumb1 -24.326973 -0.000000 -32.862282
LeftUpLeg -27.595829 1.893785 1.196971
LeftLeg -0.381723 -0.000000 0.000000
LeftFoot -6.534789 -2.350809 -2.568047
LeftToeBase 4.553957 -0.000000 -0.000000
RightUpLeg -26.929197 -4.967648 3.824736
RightLeg -2.933867 -0.000000 0.000000
RightFoot -9.863351 -6.756771 15.079669
RightToeBase 16.212587 -0.000000 -0.000000
6
root -3.682314 32.402207 -2.555574 33.894165 5.052165 0.392735
Spine -39.396203 -5.355113 4.257596
Head 5.543050 -1.370946 -5.870847
LeftShoulder -17.846473 39.668355 25.046252
LeftArm 41.313012 -44.562698 -47.138193
LeftForeArm 20.733288 -0.000000 -1.397947
LeftHand -25.256777 -0.000000 -3.698679
LeftHandThumb1 -26.253704 0.000000 33.147579
RightShoulder -18.034042 -40.527330 -26.323718
RightArm 45.520865 30.222111 49.557967
RightForeArm 16.656660 -0.000000 -7.346532
RightHand 8.288013 -0.000000 8.091707
RightHandThumb1 -24.326973 -0.000000 -32.862282
LeftUpLeg -27.598520 1.897640 1.193000
LeftLeg -0.384699 -0.000000 0.000000
LeftFoot -6.524078 -2.338182 -2.579475
LeftToeBase 4.566491 -0.000000 -0.000000
RightUpLeg -26.932395 -4.976577 3.831346
RightLeg -2.936932 -0.000000 0.000000
RightFoot -9.857504 -6.763577 14.991928
RightToeBase 16.264526 -0.000000 -0.000000
7
root -3.681319 32.402629 -2.556554 33.898335 5.044326 0.392858
Spine -39.385651 -5.362395 4.264923
Head 5.509396 -1.368300 -5.870008
LeftShoulder -17.864890 39.643853 25.036086
LeftArm 41.308105 -44.560721 -47.136849
LeftForeArm 20.726058 0.000000 -1.397943
LeftHand -25.266533 -0.000000 -3.690780
LeftHandThumb1 -26.253704 0.000000 33.147579
RightShoulder -18.033238 -40.507368 -26.347579
RightArm 45.542120 30.244728 49.610997
RightForeArm 16.601128 0.000000 -7.367446
RightHand 8.378652 -0.000000 8.158148
RightHandThumb1 -24.326973 -0.000000 -32.862282
LeftUpLeg -27.601284 1.911185 1.183644
LeftLeg -0.389273 -0.000000 0.000000
LeftFoot -6.524498 -2.361971 -2.579536
LeftToeBase 4.583452 -0.000000 -0.000000
RightUpLeg -26.935078 -4.990146 3.834178
RightLeg -2.947831 -0.000000 0.000000
RightFoot -9.856087 -6.737498 15.041273
RightToeBase 16.281860 -0.000000 -0.000000
8
root -3.680797 32.402653 -2.556665 33.904379 5.037527 0.394092
Spine -39.387184 -5.369599 4.270465
Head 5.500051 -1.359363 -5.868162
LeftShoulder -17.860297 39.620392 25.038830
LeftArm 41.296601 -44.568528 -47.133498
LeftForeArm 20.747987 -0.000000 -1.414092
LeftHand -25.287268 0.000000 -3.693632
LeftHandThumb1 -26.253704 0.000000 33.147579
RightShoulder -18.019652 -40.501229 -26.369039
RightArm 45.547123 30.272961 49.643575
RightForeArm 16.628159 0.000000 -7.360138
RightHand 8.231846 0.000000 8.105207
RightHandThumb1 -24.326973 -0.000000 -32.862282
LeftUpLeg -27.600753 1.919031 1.179176
LeftLeg -0.401714 -0.000000 0.000000
LeftFoot -6.519109 -2.375034 -2.605111
LeftToeBase 4.587853 -0.000000 -0.000000
RightUpLeg -26.935839 -4.993155 3.833708
RightLeg -2.959821 -0.000000 0.000000
RightFoot -9.841112 -6.743995 14.983954
RightToeBase 16.274741 -0.000000 -0.000000
9
root -3.680931 32.403102 -2.557569 33.908916 5.028161 0.391474
Spine -39.379984 -5.368361 4.271471
Head 5.476117 -1.367090 -5.869213
LeftShoulder -17.863502 39.613115 25.035073
LeftArm 41.300737 -44.576523 -47.140744
LeftForeArm 20.739840 -0.000000 -1.414779
LeftHand -25.294993 -0.000000 -3.685563
LeftHandThumb1 -26.253704 0.000000 33.147579
RightShoulder -18.018624 -40.463068 -26.383632
RightArm 45.526879 30.264444 49.641854
RightForeArm 16.674305 -0.000000 -7.376882
RightHand 8.212238 -0.000000 8.168179
RightHandThumb1 -24.326973 -0.000000 -32.862282
LeftUpLeg -27.602737 1.918091 1.180631
LeftLeg -0.405749 -0.000000 0.000000
LeftFoot -6.509406 -2.422657 -2.582438
LeftToeBase 4.610392 -0.000000 -0.000000
RightUpLeg -26.939281 -4.987287 3.832537
RightLeg -2.968317 -0.000000 0.000000
RightFoot -9.832670 -6.731371 15.026594
RightToeBase 16.278838 -0.000000 -0.000000
10
root -3.680907 32.403069 -2.558455 33.913088 5.010385 0.388325
Spine -39.372040 -5.370796 4.276401
Head 5.453996 -1.359529 -5.872947
LeftShoulder -17.876683 39.611733 25.030794
LeftArm 41.292125 -44.581704 -47.149258
LeftForeArm 20.722731 -0.000000 -1.401883
LeftHand -25.303462 0.000000 -3.705225
LeftHandThumb1 -26.253704 0.000000 33.147579
RightShoulder -18.015774 -40.461386 -26.403238
RightArm 45.545960 30.265371 49.676548
RightForeArm 16.674115 -0.000000 -7.390905
RightHand 8.344346 -0.000000 8.216884
RightHandThumb1 -24.326973 -0.000000 -32.862282
LeftUpLeg -27.599824 1.920668 1.181384
LeftLeg -0.419927 -0.000000 0.000000
LeftFoot -6.508677 -2.348717 -2.603777
LeftToeBase 4.567750 -0.000000 -0.000000
RightUpLeg -26.945313 -4.993589 3.838429
RightLeg -2.971904 -0.000000 0.000000
RightFoot -9.819829 -6.717466 15.019737
RightToeBase 16.272630 -0.000000 -0.000000
